<svg width="96" height="96" xmlns="http://www.w3.org/2000/svg" xmlns:xlink="http://www.w3.org/1999/xlink" xml:space="preserve" overflow="hidden"><g transform="translate(-463 -610)"><path d="M507.19 654.77 504.19 651.77C504.637 650.174 503.705 648.519 502.109 648.073 501.071 647.782 499.956 648.071 499.19 648.83 497.27 650.83 492.19 655.34 486.5 655.34 480.81 655.34 475.74 650.79 473.82 648.83 472.643 647.664 470.743 647.673 469.577 648.851 468.819 649.617 468.529 650.732 468.82 651.77L465.82 654.77C464.652 655.957 464.668 657.867 465.855 659.035 467.042 660.203 468.952 660.187 470.12 659L473 656.12C473.71 656.66 474.49 657.21 475.33 657.75L473.46 661.48C472.736 662.955 473.333 664.739 474.8 665.48 475.215 665.692 475.674 665.801 476.14 665.8 477.279 665.802 478.321 665.159 478.83 664.14L480.72 660.35C481.633 660.666 482.569 660.91 483.52 661.08L483.52 665C483.52 666.657 484.863 668 486.52 668 488.177 668 489.52 666.657 489.52 665L489.52 661.1C490.474 660.93 491.414 660.686 492.33 660.37L494.22 664.16C494.729 665.179 495.771 665.822 496.91 665.82 497.376 665.821 497.835 665.712 498.25 665.5 499.717 664.759 500.315 662.975 499.59 661.5L497.72 657.76C498.56 657.23 499.34 656.68 500.05 656.14L503 659C504.212 660.13 506.111 660.062 507.24 658.85 508.314 657.698 508.314 655.912 507.24 654.76Z" fill="#FFFFFF"/><path d="M556.12 654.77 553.12 651.77C553.567 650.174 552.635 648.519 551.039 648.073 550.001 647.782 548.886 648.071 548.12 648.83 546.2 650.83 541.12 655.34 535.44 655.34 529.76 655.34 524.7 650.82 522.78 648.86 521.603 647.694 519.703 647.703 518.537 648.881 517.779 649.647 517.489 650.761 517.78 651.8L514.78 654.8C513.55 655.91 513.453 657.807 514.563 659.037 515.673 660.267 517.57 660.364 518.8 659.254 518.888 659.174 518.972 659.09 519.05 659L521.94 656.11C522.65 656.65 523.43 657.2 524.27 657.74L522.4 661.48C521.675 662.955 522.273 664.739 523.74 665.48 524.155 665.692 524.614 665.801 525.08 665.8 526.219 665.802 527.261 665.159 527.77 664.14L529.66 660.35C530.576 660.666 531.516 660.91 532.47 661.08L532.47 665C532.47 666.657 533.813 668 535.47 668 537.127 668 538.47 666.657 538.47 665L538.47 661.1C539.421 660.929 540.357 660.685 541.27 660.37L543.16 664.16C543.669 665.179 544.711 665.822 545.85 665.82 546.316 665.821 546.775 665.712 547.19 665.5 548.657 664.759 549.255 662.975 548.53 661.5L546.66 657.76C547.5 657.23 548.28 656.68 548.99 656.14L551.88 659C553.092 660.13 554.99 660.062 556.12 658.85 557.194 657.698 557.194 655.912 556.12 654.76Z" fill="#FFFFFF"/></g></svg>