<svg width="96" height="96" xmlns="http://www.w3.org/2000/svg" xmlns:xlink="http://www.w3.org/1999/xlink" xml:space="preserve" overflow="hidden"><g transform="translate(-334 -610)"><path d="M359 645.4C349.6 645.4 341.6 653.56 338.55 657.11 337.781 658.032 337.82 659.383 338.64 660.26 341.75 663.49 349.69 670.6 359 670.6 368.31 670.6 376.24 663.49 379.35 660.27 380.181 659.393 380.22 658.032 379.44 657.11 376.4 653.56 368.39 645.4 359 645.4ZM353.11 650.72C349.091 653.963 348.462 659.849 351.704 663.868 352.253 664.548 352.895 665.148 353.61 665.65 349.489 664.084 345.742 661.672 342.61 658.57 345.56 655.288 349.128 652.621 353.11 650.72ZM364.39 665.65C368.617 662.674 369.632 656.835 366.656 652.608 366.158 651.9 365.563 651.265 364.89 650.72 368.871 652.622 372.439 655.29 375.39 658.57 372.256 661.67 368.509 664.081 364.39 665.65Z" fill="#FFFFFF"/><path d="M425.44 657.11C422.44 653.56 414.44 645.4 405 645.4 395.56 645.4 387.6 653.56 384.55 657.11 383.781 658.032 383.82 659.383 384.64 660.26 387.75 663.49 395.69 670.6 405 670.6 414.31 670.6 422.24 663.49 425.35 660.27 426.181 659.393 426.219 658.032 425.44 657.11ZM399.11 650.72C395.091 653.963 394.462 659.849 397.704 663.868 398.253 664.548 398.895 665.148 399.61 665.65 395.489 664.084 391.742 661.672 388.61 658.57 391.56 655.288 395.128 652.621 399.11 650.72ZM410.39 665.65C414.617 662.674 415.632 656.835 412.656 652.608 412.158 651.9 411.563 651.265 410.89 650.72 414.871 652.622 418.439 655.29 421.39 658.57 418.256 661.67 414.509 664.081 410.39 665.65Z" fill="#FFFFFF"/></g></svg>