<svg width="96" height="96" xmlns="http://www.w3.org/2000/svg" xmlns:xlink="http://www.w3.org/1999/xlink" xml:space="preserve" overflow="hidden"><g transform="translate(-418 -580)"><path d="M428 614 428 593 434.7 599.7C441.4 593.7 450.3 590 460 590 481 590 498 607 498 628 498 649 481 666 460 666 449.5 666 440 661.7 433.1 654.9L441.6 646.4C446.3 651.1 452.8 654 460 654 474.3 654 486 642.3 486 628 486 613.7 474.3 602 460 602 453.6 602 447.7 604.3 443.2 608.2L449 614 428 614Z" fill="#FFFFFF"/></g></svg>