<svg width="96" height="96" xmlns="http://www.w3.org/2000/svg" xmlns:xlink="http://www.w3.org/1999/xlink" xml:space="preserve" overflow="hidden"><g transform="translate(-452 -602)"><path d="M507 617.1C487 617.1 470.5 632.9 469.5 652.9L460.6 644C459.4 642.9 457.6 642.9 456.4 644.1 455.3 645.2 455.2 647.1 456.3 648.3L470.4 662.4C470.7 662.7 471 662.9 471.4 663 471.5 663 471.6 663.1 471.8 663.1L472 663.2 472.3 663.2 472.6 663.2 472.8 663.2C473.5 663.2 474.2 662.8 474.7 662.3L488.8 648.2C490 647 490 645.1 488.8 644 487.6 642.8 485.7 642.8 484.6 644L475.5 653.1C476.2 638.9 486.3 627 500.2 623.9 514.1 620.8 528.3 627.4 534.9 640 541.5 652.6 538.9 668 528.5 677.7 527.3 678.8 527.2 680.7 528.4 681.9 529.5 683.1 531.4 683.2 532.6 682.1 543.9 671.6 547.6 655.3 541.9 640.9 536.3 626.5 522.4 617.1 507 617.1Z" fill="#FFFFFF"/></g></svg>